<svg width="1600" height="900" viewBox="0 0 1600 900" fill="none" xmlns="http://www.w3.org/2000/svg">
<g clip-path="url(#clip0_11_135)">
<rect width="1600" height="900" fill="#F4F9F6"/>
<path d="M146.5 542.156C76.9 535.756 -23.1667 557.489 -64.5 569.156V899.656H897V740C883.167 736 846 686.956 808 670.156C760.5 649.156 500 628.656 423.5 618.656C347 608.656 233.5 550.156 146.5 542.156Z" fill="url(#paint0_linear_11_135)"/>
<path d="M4.5 670.055C-25.5 669.255 -55 677.388 -66 681.555V900.055H266V791.055C258.667 787.055 235.8 773.655 203 752.055C162 725.055 42 671.055 4.5 670.055Z" fill="url(#paint1_linear_11_135)"/>
<path d="M971.5 656.5C887.1 659.7 760.667 696.833 708 715V899.5H1812.5V610C1707.67 622 1467.7 648.1 1346.5 656.5C1195 667 1077 652.5 971.5 656.5Z" fill="url(#paint2_linear_11_135)"/>
<path d="M804.5 717.828C991.7 757.428 1553.17 829.661 1810.5 860.828V900.328H-62.5V847.828C-47.5 838.828 15.9 811.428 149.5 773.828C316.5 726.828 570.5 668.328 804.5 717.828Z" fill="url(#paint3_linear_11_135)"/>
<path d="M224.852 332.621C197.012 331.075 169.062 331.236 141.074 331.236C126.405 331.236 111.67 328.451 105.542 318.034C102.061 312.116 100 305.479 100 298.393C100 292.442 101.862 291.803 106.846 288.613C111.933 285.357 120.096 280.524 126.405 279.893C133.072 279.227 147.69 276.91 152.809 272.559C157.418 268.642 160.339 263.562 164.545 259.356C176.216 247.686 187.451 239.628 203.011 233.115C215.14 228.038 230.086 215.977 243.107 219.423C246.805 220.402 247.618 222.88 249.953 225.617C253.422 229.685 259.979 230.649 264.866 232.137C268.862 233.353 272.789 233.521 276.113 230.751C281.024 226.658 292.18 222.136 298.361 220.075C309.644 216.314 318.385 207.571 328.841 201.82C352.117 189.018 378.051 191.911 403.736 193.263C429.744 194.632 459.47 192.855 478.467 213.963C491.568 228.519 495.942 250.132 515.141 258.215C521.002 260.683 527.46 258.329 533.559 259.438C538.417 260.321 542.052 262.104 546.598 263.757C559.073 268.293 550.805 290.258 550.347 298.963C549.952 306.472 528.986 314.838 523.127 318.034C507.856 326.363 487.034 330.841 469.829 332.621C448.583 334.819 427.253 336.891 405.936 338.245C381.634 339.788 357.491 337.274 333.242 337.104C297.082 336.849 260.918 334.625 224.852 332.621Z" fill="#ACD2EE" fill-opacity="0.34"/>
<path d="M1627.6 479.621C1655.44 478.075 1683.39 478.236 1711.38 478.236C1726.05 478.236 1740.79 475.451 1746.91 465.034C1750.39 459.116 1752.46 452.479 1752.46 445.393C1752.46 439.442 1750.59 438.803 1745.61 435.613C1740.52 432.357 1732.36 427.524 1726.05 426.893C1719.38 426.227 1704.77 423.91 1699.65 419.559C1695.04 415.642 1692.12 410.562 1687.91 406.356C1676.24 394.686 1665 386.628 1649.44 380.115C1637.32 375.038 1622.37 362.977 1609.35 366.423C1605.65 367.402 1604.84 369.88 1602.5 372.617C1599.03 376.685 1592.48 377.649 1587.59 379.137C1583.59 380.353 1579.67 380.521 1576.34 377.751C1571.43 373.658 1560.28 369.136 1554.09 367.075C1542.81 363.314 1534.07 354.571 1523.61 348.82C1500.34 336.018 1474.4 338.911 1448.72 340.263C1422.71 341.632 1392.99 339.855 1373.99 360.963C1360.89 375.519 1356.51 397.132 1337.31 405.215C1331.45 407.683 1325 405.329 1318.9 406.438C1314.04 407.321 1310.4 409.104 1305.86 410.757C1293.38 415.293 1301.65 437.258 1302.11 445.963C1302.5 453.472 1323.47 461.838 1329.33 465.034C1344.6 473.363 1365.42 477.841 1382.63 479.621C1403.87 481.819 1425.2 483.891 1446.52 485.245C1470.82 486.788 1494.96 484.274 1519.21 484.104C1555.37 483.849 1591.54 481.625 1627.6 479.621Z" fill="#ACD2EE" fill-opacity="0.34"/>
<path d="M954.948 188.037C936.898 187.035 918.777 187.14 900.631 187.14C891.12 187.14 881.566 185.337 877.593 178.593C875.336 174.762 874 170.465 874 165.878C874 162.025 875.207 161.611 878.438 159.546C881.737 157.439 926.909 159.955 931 159.546C935.323 159.115 912.529 147.817 915.848 145C918.836 142.464 913.121 143.328 915.848 140.606C923.415 133.05 928.412 141.217 938.5 137C946.364 133.713 944.5 122.087 966.784 114.754C969.182 115.387 969.709 116.991 971.223 118.763C973.472 121.397 977.723 122.021 980.892 122.984C983.482 123.771 986.029 123.88 988.184 122.087C991.368 119.437 998.601 116.51 1002.61 115.176C1009.92 112.741 1015.59 107.081 1022.37 103.358C1037.46 95.0696 1054.28 96.9426 1070.93 97.8178C1087.79 98.7039 1107.06 97.5534 1119.38 111.219C1127.87 120.642 1130.71 134.634 1143.16 139.867C1146.96 141.465 1151.15 139.941 1155.1 140.659C1158.25 141.23 1183.55 143.93 1186.5 145C1194.59 147.937 1194.8 174.364 1194.5 180C1194.24 184.861 1168.16 189 1158 189C1148.1 194.392 1124.94 186.884 1113.78 188.037C1100.01 189.459 1086.18 190.801 1072.36 191.677C1056.6 192.676 1040.95 191.049 1025.22 190.938C1001.78 190.774 978.332 189.334 954.948 188.037Z" fill="#ACD2EE" fill-opacity="0.34"/>
</g>
<defs>
<linearGradient id="paint0_linear_11_135" x1="851.5" y1="780.5" x2="-25" y2="136.5" gradientUnits="userSpaceOnUse">
<stop stop-color="#AFDFA3"/>
<stop offset="1" stop-color="#B6D59E" stop-opacity="0"/>
</linearGradient>
<linearGradient id="paint1_linear_11_135" x1="17.5" y1="900" x2="79.5" y2="631.5" gradientUnits="userSpaceOnUse">
<stop stop-color="#B9D57E"/>
<stop offset="1" stop-color="#9BBF7E" stop-opacity="0"/>
</linearGradient>
<linearGradient id="paint2_linear_11_135" x1="1348.5" y1="900" x2="1357" y2="640.5" gradientUnits="userSpaceOnUse">
<stop stop-color="#C9EC9D"/>
<stop offset="1" stop-color="#B1E399" stop-opacity="0.22"/>
</linearGradient>
<linearGradient id="paint3_linear_11_135" x1="874" y1="699" x2="874" y2="900.328" gradientUnits="userSpaceOnUse">
<stop stop-color="#B9E994"/>
<stop offset="1" stop-color="#88BC76"/>
</linearGradient>
<clipPath id="clip0_11_135">
<rect width="1600" height="900" fill="white"/>
</clipPath>
</defs>
</svg>
