<svg id="Capa_1" enable-background="new 0 0 512.001 512.001" height="512" viewBox="0 0 512.001 512.001" width="512" xmlns="http://www.w3.org/2000/svg"><g><g clip-rule="evenodd" fill-rule="evenodd"><path d="m416.001 432.937v-68.465-264.962l-89.511-89.51h-230.489v354.472 68.465z" fill="#fff"/><path d="m416.001 432.937h-320v-68.465c-33.743 4.474-60 33.551-60 68.465 0 37.986 31.079 69.065 69.065 69.065h301.87c37.986 0 69.065-31.079 69.065-69.065 0-34.914-26.257-63.991-60-68.465z" fill="#60a4ff"/></g><g><path d="m186 186.944c-5.523 0-10 4.477-10 10v9.508c0 5.523 4.477 10 10 10s10-4.477 10-10v-9.508c0-5.523-4.477-10-10-10z"/><path d="m326.001 216.452c5.523 0 10-4.477 10-10v-9.508c0-5.523-4.477-10-10-10s-10 4.477-10 10v9.508c0 5.523 4.477 10 10 10z"/><path d="m296.748 257.56c-10.884-10.884-25.354-16.878-40.747-16.878s-29.863 5.994-40.747 16.878c-3.905 3.905-3.905 10.237 0 14.142s10.237 3.905 14.142 0c7.106-7.106 16.554-11.02 26.604-11.02s19.499 3.914 26.604 11.02c1.953 1.953 4.512 2.929 7.071 2.929s5.119-.977 7.071-2.929c3.906-3.905 3.907-10.237.002-14.142z"/><path d="m426.001 356.214v-256.704c0-2.652-1.054-5.196-2.929-7.071l-89.51-89.51c-1.876-1.875-4.419-2.929-7.072-2.929h-230.49c-5.523 0-10 4.477-10 10v346.215c-34.682 8.681-60 40.426-60 76.721 0 43.597 35.468 79.065 79.064 79.065h301.871c43.596 0 79.064-35.468 79.064-79.065.001-36.345-25.298-68.045-59.998-76.722zm-89.511-322.072 55.368 55.368h-55.368zm70.446 457.859h-301.871c-32.568 0-59.064-26.497-59.064-59.065 0-25.399 16.599-47.816 40-55.88v45.88c-5.523 0-10 4.477-10 10s4.477 10 10 10h124.997c5.523 0 10-4.477 10-10s-4.477-10-10-10h-104.997v-402.936h210.49v79.51c0 5.523 4.477 10 10 10h79.509v313.426h-105.002c-5.523 0-10 4.477-10 10s4.477 10 10 10h125.003c5.523 0 10-4.477 10-10s-4.477-10-10-10v-45.883c23.411 8.057 40 30.447 40 55.883-.001 32.569-26.497 59.065-59.065 59.065z"/><path d="m256.001 422.937h-.008c-5.523 0-9.996 4.477-9.996 10s4.481 10 10.004 10 10-4.477 10-10-4.477-10-10-10z"/></g></g></svg>