<?xml version="1.0" encoding="UTF-8"?>
<svg xmlns="http://www.w3.org/2000/svg" xmlns:xlink="http://www.w3.org/1999/xlink" version="1.1" id="Capa_1" x="0px" y="0px" viewBox="0 0 512 512" style="enable-background:new 0 0 512 512;" xml:space="preserve" width="512" height="512">
<g>
	<rect id="XMLID_2688_" x="10" y="30" style="fill:#FFCD69;" width="164" height="452"/>
	<rect id="XMLID_2687_" x="174" y="30" style="fill:#A0E5A5;" width="164" height="452"/>
	<rect id="XMLID_2686_" x="338" y="30" style="fill:#FF7D97;" width="164" height="452"/>
	<g>
		<g>
			<rect id="XMLID_58_" x="50" y="186" style="fill:#FFFFFF;" width="84" height="40"/>
		</g>
		<g>
			<rect id="XMLID_55_" x="50" y="106" style="fill:#FFFFFF;" width="84" height="40"/>
		</g>
		<circle style="fill:#FFFFFF;" cx="92" cy="376" r="30"/>
	</g>
	<g>
		<g>
			<rect id="XMLID_57_" x="214" y="186" style="fill:#FFFFFF;" width="84" height="40"/>
		</g>
		<g>
			<rect id="XMLID_56_" x="214" y="106" style="fill:#FFFFFF;" width="84" height="40"/>
		</g>
		<circle style="fill:#FFFFFF;" cx="256" cy="376" r="30"/>
	</g>
	<g>
		<g>
			<rect id="XMLID_60_" x="378" y="186" style="fill:#FFFFFF;" width="84" height="40"/>
		</g>
		<g>
			<rect id="XMLID_59_" x="378" y="106" style="fill:#FFFFFF;" width="84" height="40"/>
		</g>
		<circle style="fill:#FFFFFF;" cx="420" cy="376" r="30"/>
	</g>
	
		<polyline id="XMLID_1008_" style="fill:none;stroke:#000000;stroke-width:20;stroke-linecap:round;stroke-linejoin:round;stroke-miterlimit:10;" points="&#10;&#9;&#9;502,301.127 502,482 338,482 338,30 502,30 502,211.127 &#9;"/>
	
		<rect x="10" y="30" style="fill:none;stroke:#000000;stroke-width:20;stroke-linecap:round;stroke-linejoin:round;stroke-miterlimit:10;" width="164" height="452"/>
	
		<rect x="174" y="30" style="fill:none;stroke:#000000;stroke-width:20;stroke-linecap:round;stroke-linejoin:round;stroke-miterlimit:10;" width="164" height="452"/>
	
		<rect x="50" y="186" style="fill:none;stroke:#000000;stroke-width:20;stroke-linecap:round;stroke-linejoin:round;stroke-miterlimit:10;" width="84" height="40"/>
	
		<rect x="50" y="106" style="fill:none;stroke:#000000;stroke-width:20;stroke-linecap:round;stroke-linejoin:round;stroke-miterlimit:10;" width="84" height="40"/>
	
		<circle style="fill:none;stroke:#000000;stroke-width:20;stroke-linecap:round;stroke-linejoin:round;stroke-miterlimit:10;" cx="92" cy="376" r="30"/>
	
		<rect x="214" y="186" style="fill:none;stroke:#000000;stroke-width:20;stroke-linecap:round;stroke-linejoin:round;stroke-miterlimit:10;" width="84" height="40"/>
	
		<rect x="214" y="106" style="fill:none;stroke:#000000;stroke-width:20;stroke-linecap:round;stroke-linejoin:round;stroke-miterlimit:10;" width="84" height="40"/>
	
		<circle style="fill:none;stroke:#000000;stroke-width:20;stroke-linecap:round;stroke-linejoin:round;stroke-miterlimit:10;" cx="256" cy="376" r="30"/>
	
		<rect x="378" y="186" style="fill:none;stroke:#000000;stroke-width:20;stroke-linecap:round;stroke-linejoin:round;stroke-miterlimit:10;" width="84" height="40"/>
	
		<rect x="378" y="106" style="fill:none;stroke:#000000;stroke-width:20;stroke-linecap:round;stroke-linejoin:round;stroke-miterlimit:10;" width="84" height="40"/>
	
		<circle style="fill:none;stroke:#000000;stroke-width:20;stroke-linecap:round;stroke-linejoin:round;stroke-miterlimit:10;" cx="420" cy="376" r="30"/>
	
		<line style="fill:none;stroke:#000000;stroke-width:20;stroke-linecap:round;stroke-linejoin:round;stroke-miterlimit:10;" x1="502" y1="256.127" x2="502" y2="256.127"/>
</g>















</svg>
