<svg id="Capa_1" enable-background="new 0 0 511.952 511.952" height="512" viewBox="0 0 511.952 511.952" width="512" xmlns="http://www.w3.org/2000/svg"><g><g><path d="m437.4 496.168h-414.009c-8.795 0-15.925-7.13-15.925-15.925v-319.74h445.859v319.74c0 8.796-7.13 15.925-15.925 15.925z" fill="#e2e2e2"/></g><g><path d="m453.327 160.503h-445.859v-41.753c0-8.795 7.13-15.925 15.925-15.925h414.009c8.795 0 15.925 7.13 15.925 15.925z" fill="#b0e7c9"/></g><g><path d="m453.32 160.499v319.747c0 8.789-7.127 15.926-15.916 15.926h-21.381c8.799 0 15.926-7.137 15.926-15.926v-319.747z" fill="#cecece"/></g><g><path d="m453.33 118.752v41.746h-21.38v-41.746c0-8.799-7.127-15.926-15.926-15.926h21.381c8.789 0 15.925 7.127 15.925 15.926z" fill="#91deb6"/></g><g><path d="m488.559 409.127h-414.009c-8.795 0-15.925-7.13-15.925-15.925v-319.741h445.859v319.74c0 8.796-7.13 15.926-15.925 15.926z" fill="#f8f6f6"/></g><g><path d="m504.483 73.462v319.737c0 8.799-7.127 15.926-15.926 15.926h-18.673c8.799 0 15.926-7.127 15.926-15.926v-319.737z" fill="#ebebeb"/></g><g><path d="m504.486 73.461h-445.86v-41.753c0-8.795 7.13-15.925 15.925-15.925h414.009c8.795 0 15.925 7.13 15.925 15.925v41.753z" fill="#b3dafe"/></g><g><path d="m504.483 31.706v41.756h-18.673v-41.756c0-8.789-7.127-15.926-15.926-15.926h18.673c8.799 0 15.926 7.137 15.926 15.926z" fill="#8ac9fe"/></g><g><path d="m98.705 256.669h165.728v85.026h-165.728z" fill="#b0e7c9"/></g><g><path d="m298.676 256.669h165.728v85.026h-165.728z" fill="#fd8087"/></g><g><path d="m444.496 256.669h19.908v85.026h-19.908z" fill="#fe646f"/></g><g><path d="m244.525 256.669h19.908v85.026h-19.908z" fill="#91deb6"/></g><g><path d="m291.211 256.668v85.026c0 4.123 3.342 7.465 7.466 7.465h165.727c4.124 0 7.465-3.342 7.465-7.465v-85.026c0-4.123-3.342-7.465-7.465-7.465h-165.728c-4.123 0-7.465 3.342-7.465 7.465zm14.931 7.466h150.797v70.095h-150.797z"/><path d="m488.561 8.318h-314.423c-4.124 0-7.465 3.343-7.465 7.465 0 4.123 3.342 7.465 7.465 7.465h314.423c4.665 0 8.46 3.795 8.46 8.46v34.287h-430.929v-34.286c0-4.665 3.795-8.46 8.46-8.46h64.962c4.124 0 7.466-3.342 7.466-7.465s-3.342-7.465-7.466-7.465h-64.962c-12.897 0-23.391 10.493-23.391 23.391l-.002 63.65h-27.766c-12.897 0-23.391 10.493-23.391 23.391l-.002 361.492c0 12.898 10.493 23.391 23.391 23.391h316.52c4.124 0 7.466-3.342 7.466-7.465s-3.342-7.465-7.466-7.465h-316.52c-4.665 0-8.46-3.795-8.46-8.46v-312.276h36.228v225.234c0 12.898 10.493 23.391 23.391 23.391h371.31v63.651c0 4.665-3.795 8.46-8.46 8.46h-63.404c-4.124 0-7.465 3.342-7.465 7.465s3.342 7.465 7.465 7.465h63.404c12.897 0 23.391-10.493 23.391-23.391v-63.651h27.768c12.897 0 23.391-10.493 23.391-23.391l.002-361.493c0-12.897-10.494-23.39-23.391-23.39zm-437.402 144.719h-36.226v-34.287c0-4.665 3.795-8.46 8.46-8.46h27.767v42.747zm445.86 240.165c0 4.665-3.795 8.46-8.46 8.46h-414.009c-4.665 0-8.46-3.795-8.46-8.46v-312.275h430.929z"/><path d="m132.899 148.359h228.922c4.124 0 7.465-3.342 7.465-7.465s-3.342-7.465-7.465-7.465h-228.922c-4.123 0-7.465 3.343-7.465 7.465s3.342 7.465 7.465 7.465z"/><path d="m132.899 181.327h297.311c4.124 0 7.465-3.342 7.465-7.465s-3.342-7.465-7.465-7.465h-297.311c-4.123 0-7.465 3.342-7.465 7.465s3.342 7.465 7.465 7.465z"/><path d="m132.899 214.296h297.311c4.124 0 7.465-3.343 7.465-7.465 0-4.123-3.342-7.465-7.465-7.465h-297.311c-4.123 0-7.465 3.342-7.465 7.465 0 4.122 3.342 7.465 7.465 7.465z"/><path d="m98.705 349.16h165.727c4.124 0 7.466-3.342 7.466-7.465v-85.026c0-4.123-3.342-7.465-7.466-7.465h-165.727c-4.124 0-7.465 3.342-7.465 7.465v85.026c0 4.122 3.342 7.465 7.465 7.465zm7.466-85.026h150.797v70.095h-150.797z"/><path d="m189.754 286.774c4.124 0 7.465-3.342 7.465-7.465s-3.342-7.465-7.465-7.465h-16.903c-4.123 0-7.465 3.342-7.465 7.465v40.116c0 4.123 3.342 7.465 7.465 7.465h16.903c4.124 0 7.465-3.342 7.465-7.465s-3.342-7.465-7.465-7.465h-9.438v-5.127h8.191c4.124 0 7.465-3.342 7.465-7.465s-3.342-7.465-7.465-7.465h-8.191v-5.127h9.438z"/><path d="m234.765 292.496c-4.482-1.653-8.687-3.443-10.45-4.208-.856-.372 1.43-1.539 1.518-1.565 4.4-1.327 8.73 1.984 8.933 2.141 3.154 2.599 7.822 2.177 10.459-.959 2.653-3.156 2.246-7.865-.911-10.519-3.846-3.233-12.974-7.916-22.789-4.959-6.494 1.957-11.095 7.113-12.006 13.457-.707 4.924 1.094 10.37 4.841 13.697 3.927 3.487 10.422 5.147 15.238 6.923 2.769 1.021 3.874 2.272 3.774 2.833-.159.885-1.748 2.621-4.706 2.621-4.974 0-7.822-2.716-8.576-3.549-2.77-3.057-7.491-3.286-10.545-.519-3.055 2.769-3.288 7.49-.519 10.545 4.869 5.373 12.027 8.454 19.64 8.454 9.699 0 17.86-6.278 19.403-14.927 1.8-10.081-6.041-16.787-13.304-19.466z"/><path d="m152.12 272.785c-3.455-2.248-8.079-1.272-10.329 2.184l-6.58 10.106-6.67-10.217c-2.256-3.452-6.88-4.424-10.333-2.169-3.452 2.254-4.424 6.88-2.17 10.332l11.712 17.937-.045 18.448c-.01 4.123 3.324 7.474 7.447 7.484h.018c4.115 0 7.456-3.33 7.465-7.447l.045-18.475 11.623-17.853c2.249-3.456 1.272-8.08-2.183-10.33z"/><path d="m366.195 271.474c-4.124 0-7.465 3.342-7.465 7.465v17.208l-14.761-21.375c-1.856-2.689-5.242-3.855-8.365-2.885-3.118.972-5.243 3.86-5.243 7.127v40.41c0 4.123 3.342 7.465 7.465 7.465s7.465-3.342 7.465-7.465v-16.462l13.716 19.862c2.067 2.985 5.689 4.294 9.014 3.256 3.373-1.053 5.64-4.277 5.64-8.02v-39.121c-.001-4.123-3.342-7.465-7.466-7.465z"/><path d="m411.2 271.474c-15.279 0-27.708 12.43-27.708 27.708s12.43 27.708 27.708 27.708 27.707-12.43 27.707-27.708-12.429-27.708-27.707-27.708zm0 40.485c-7.045 0-12.778-5.732-12.778-12.777s5.732-12.777 12.778-12.777 12.777 5.732 12.777 12.777-5.731 12.777-12.777 12.777z"/></g></g></svg>