<svg height="512pt" viewBox="-79 0 512 512.00129" width="512pt" xmlns="http://www.w3.org/2000/svg"><path d="m276.113281 173.957031-57.707031-11.949219 30.195312-145.804687c1.222657-5.902344 6.996094-9.699219 12.898438-8.476563l36.335938 7.527344c5.902343 1.21875 9.695312 6.996094 8.476562 12.898438zm0 0" fill="#00f2a9"/><path d="m306.304688 28.152344-30.195313 145.804687-23.511719-4.871093 30.195313-145.800782c1.222656-5.898437-2.5625-11.675781-8.472657-12.902344l23.511719 4.871094c5.910157 1.222656 9.695313 7 8.472657 12.898438zm0 0" fill="#09d692"/><path d="m188.609375 205.757812-60.292969-60.296874c-4.261718-4.261719-4.261718-11.171876 0-15.433594l60.292969-60.292969c4.261719-4.261719 11.171875-4.261719 15.433594 0l60.292969 60.292969c4.265624 4.261718 4.265624 11.171875 0 15.433594l-60.292969 60.296874c-4.261719 4.261719-11.171875 4.261719-15.433594 0zm0 0" fill="#ffc26d"/><path d="m174.785156 219.582031-60.296875-60.296875c-4.261719-4.261718-4.261719-11.171875 0-15.433594l60.296875-60.292968c4.261719-4.261719 11.171875-4.261719 15.433594 0l60.292969 60.292968c4.261719 4.261719 4.261719 11.171876 0 15.433594l-60.292969 60.296875c-4.261719 4.261719-11.171875 4.261719-15.433594 0zm0 0" fill="#ffc26d"/><path d="m264.335938 145.460938-13.828126 13.828124c4.269532-4.269531 4.269532-11.175781 0-15.433593l-60.285156-60.296875c-4.269531-4.269532-11.175781-4.269532-15.433594 0l13.816407-13.828125c4.269531-4.257813 11.175781-4.257813 15.433593 0l60.296876 60.296875c4.269531 4.257812 4.269531 11.175781 0 15.433594zm0 0" fill="#ffb54e"/><path d="m151.046875 158.929688h-85.269531c-6.027344 0-10.914063-4.886719-10.914063-10.914063v-85.269531c0-6.027344 4.886719-10.914063 10.914063-10.914063h85.269531c6.027344 0 10.914063 4.882813 10.914063 10.914063v85.269531c0 6.023437-4.886719 10.914063-10.914063 10.914063zm0 0" fill="#ff5a96"/><path d="m161.957031 62.746094v85.269531c0 6.023437-4.878906 10.914063-10.914062 10.914063h-23.28125c6.023437 0 10.914062-4.890626 10.914062-10.914063v-85.269531c0-6.027344-4.886719-10.914063-10.914062-10.914063h23.28125c6.035156 0 10.914062 4.886719 10.914062 10.914063zm0 0" fill="#ff3b82"/><path d="m329.667969 149.628906-27.273438 305.605469-3.515625 39.324219c-.511718 5.621094-5.226562 9.941406-10.878906 9.941406h-222.304688c-5.640624 0-10.367187-4.320312-10.871093-9.941406l-3.511719-39.324219-27.273438-305.605469c-.566406-6.386718 4.464844-11.886718 10.871094-11.886718h283.886719c6.40625 0 11.4375 5.503906 10.871094 11.886718zm0 0" fill="#7eadde"/><path d="m329.667969 149.628906-27.273438 305.605469-3.515625 39.324219c-.511718 5.621094-5.226562 9.941406-10.878906 9.941406h-28.441406c5.652344 0 10.367187-4.320312 10.878906-9.941406l3.515625-39.324219 27.273437-305.605469c.566407-6.386718-4.464843-11.886718-10.871093-11.886718h28.441406c6.40625 0 11.4375 5.503906 10.871094 11.886718zm0 0" fill="#609cd6"/><path d="m302.394531 455.234375-3.515625 39.324219c-.511718 5.621094-5.226562 9.941406-10.878906 9.941406h-222.304688c-5.640624 0-10.367187-4.320312-10.871093-9.941406l-3.511719-39.324219zm0 0" fill="#609cd6"/><path d="m302.394531 455.234375-3.515625 39.324219c-.511718 5.621094-5.226562 9.941406-10.878906 9.941406h-28.441406c5.652344 0 10.367187-4.320312 10.878906-9.941406l3.515625-39.324219zm0 0" fill="#408ace"/><path d="m328.195312 160.121094h-302.683593c-9.949219 0-18.011719-8.0625-18.011719-18.007813 0-9.949219 8.0625-18.011719 18.011719-18.011719h302.683593c9.945313 0 18.007813 8.0625 18.007813 18.011719 0 9.945313-8.0625 18.007813-18.007813 18.007813zm0 0" fill="#8ecbfd"/><path d="m353.703125 142.109375c0-14.066406-11.441406-25.511719-25.511719-25.511719h-32.539062l18-86.921875c1-4.816406.0625-9.734375-2.636719-13.84375-2.703125-4.113281-6.839844-6.925781-11.65625-7.921875l-36.335937-7.527344c-9.949219-2.050781-19.707032 4.355469-21.765626 14.296876l-14.011718 67.648437-17.898438-17.898437c-3.480468-3.476563-8.101562-5.394532-13.023437-5.394532-4.917969 0-9.542969 1.917969-13.019531 5.394532l-13.84375 13.84375v-15.527344c0-10.15625-8.261719-18.414063-18.414063-18.414063h-85.269531c-10.15625 0-18.414063 8.257813-18.414063 18.414063v53.851562h-21.851562c-6.816407 0-13.222657 2.65625-18.046875 7.476563-4.8125 4.816406-7.464844 11.222656-7.464844 18.035156 0 11.457031 7.59375 21.171875 18.011719 24.382813l7.132812 79.914062c.347657 3.898438 3.621094 6.832031 7.460938 6.832031.222656 0 .449219-.011719.675781-.027343 4.125-.371094 7.171875-4.015626 6.804688-8.140626l-6.914063-77.449218h197.421875c4.140625 0 7.5-3.359375 7.5-7.5 0-4.144532-3.359375-7.5-7.5-7.5h-205.082031c-5.796875 0-10.511719-4.714844-10.511719-10.511719 0-2.808594 1.09375-5.445313 3.074219-7.425781 1.988281-1.988282 4.628906-3.085938 7.4375-3.085938h302.679687c5.796875 0 10.511719 4.714844 10.511719 10.511719 0 2.8125-1.089844 5.453125-3.0625 7.429687-1.996094 1.984376-4.640625 3.082032-7.445313 3.082032h-63.082031c-4.144531 0-7.5 3.355468-7.5 7.5 0 4.140625 3.355469 7.5 7.5 7.5h55.417969l-24.996094 280.113281h-237.359375l-15.007812-168.140625c-.371094-4.125-4.019531-7.152344-8.140625-6.804688-4.125.371094-7.171875 4.011719-6.800782 8.140626l19.128907 214.296874c.851562 9.5625 8.738281 16.773438 18.339843 16.773438h57.894532c4.144531 0 7.5-3.355469 7.5-7.5s-3.355469-7.5-7.5-7.5h-57.894532c-1.75 0-3.242187-1.367188-3.398437-3.109375l-2.78125-31.15625h234.679687l-2.785156 31.144531c-.160156 1.75-1.660156 3.121094-3.414062 3.121094h-129.882813c-4.140625 0-7.5 3.359375-7.5 7.5 0 4.144531 3.359375 7.5 7.5 7.5h129.882813c9.589844 0 17.480468-7.203125 18.355468-16.773438l29.339844-328.722656c3.9375-1.203125 7.542969-3.359375 10.546875-6.351562 4.8125-4.816406 7.464844-11.222656 7.464844-18.042969zm-97.757813-124.386719c.382813-1.84375 2.191407-3.035156 4.035157-2.652344l36.335937 7.527344c1.84375.378906 3.03125 2.191406 2.648438 4.035156l-18.632813 89.964844h-18.816406l-21.582031-21.578125zm-62.03125 57.316406c.867188-.871093 1.882813-1.003906 2.414063-1.003906.523437 0 1.542969.132813 2.410156 1.003906l41.5625 41.5625h-70.839843v-17.113281zm-131.550781-12.292968c0-1.882813 1.53125-3.414063 3.414063-3.414063h85.269531c1.882813 0 3.414063 1.53125 3.414063 3.414063v53.851562h-92.097657zm0 0"/><path d="m236.820312 415.28125c3.816407 0 7.085938-2.90625 7.457032-6.785156l19.042968-198.894532c.394532-4.125-2.628906-7.789062-6.753906-8.183593-4.125-.386719-7.785156 2.628906-8.179687 6.753906l-19.042969 198.894531c-.394531 4.125 2.628906 7.785156 6.75 8.179688.246094.023437.484375.035156.726562.035156zm0 0"/><path d="m116.886719 415.28125c.238281 0 .480469-.011719.722656-.035156 4.125-.394532 7.148437-4.054688 6.75-8.179688l-19.042969-198.894531c-.394531-4.125-4.0625-7.148437-8.179687-6.753906-4.121094.394531-7.144531 4.058593-6.75 8.183593l19.042969 198.894532c.371093 3.878906 3.636718 6.785156 7.457031 6.785156zm0 0"/><path d="m184.351562 416.332031v-216c0-4.144531-3.355468-7.5-7.5-7.5-4.140624 0-7.5 3.355469-7.5 7.5v216c0 4.144531 3.359376 7.5 7.5 7.5 4.144532 0 7.5-3.355469 7.5-7.5zm0 0"/><path d="m335.660156 91.5c4.140625 0 7.5-3.359375 7.5-7.5 0-4.144531-3.359375-7.5-7.5-7.5h-.09375c-4.144531 0-7.453125 3.355469-7.453125 7.5 0 4.140625 3.402344 7.5 7.546875 7.5zm0 0"/><path d="m24.039062 59.332031c4.144532 0 7.5-3.359375 7.5-7.5 0-4.144531-3.355468-7.5-7.5-7.5h-.089843c-4.144531 0-7.453125 3.355469-7.453125 7.5 0 4.140625 3.402344 7.5 7.542968 7.5zm0 0"/><path d="m211.539062 24.5c4.144532 0 7.5-3.359375 7.5-7.5 0-4.144531-3.355468-7.5-7.5-7.5h-.09375c-4.140624 0-7.453124 3.355469-7.453124 7.5 0 4.140625 3.402343 7.5 7.546874 7.5zm0 0"/></svg>