<svg id="Capa_1" enable-background="new 0 0 511 511" height="512" viewBox="0 0 511 511" width="512" xmlns="http://www.w3.org/2000/svg"><g><path d="m330.391 69.278-14.873-3.718c-.394-.099-.705-.397-.826-.785-1.115-3.572-2.545-7.004-4.256-10.266-.189-.36-.18-.79.03-1.139l7.89-13.15c.276-.46.204-1.05-.176-1.43l-18.193-18.192c-.38-.38-.969-.452-1.43-.176l-13.15 7.89c-.349.209-.779.219-1.139.03-3.262-1.712-6.694-3.141-10.266-4.256-.388-.121-.686-.432-.785-.826l-3.718-14.873c-.13-.521-.598-.886-1.135-.886h-25.728c-.537 0-1.005.365-1.135.886l-3.718 14.873c-.099.394-.397.705-.785.826-3.572 1.115-7.004 2.545-10.266 4.256-.36.189-.79.18-1.139-.03l-13.15-7.89c-.46-.276-1.05-.204-1.43.176l-18.193 18.192c-.38.38-.452.969-.176 1.43l7.89 13.15c.209.349.219.779.03 1.139-1.711 3.262-3.141 6.694-4.256 10.266-.121.388-.432.686-.826.785l-14.873 3.718c-.521.13-.887.598-.887 1.135v25.728c0 .537.365 1.005.886 1.135l14.873 3.718c.394.099.705.397.826.785 1.115 3.572 2.545 7.004 4.256 10.266.189.36.18.79-.03 1.139l-7.89 13.15c-.276.46-.204 1.05.176 1.43l18.193 18.193c.38.38.969.452 1.43.176l13.15-7.89c.349-.209.779-.219 1.139-.03 3.262 1.711 6.694 3.141 10.266 4.256.388.121.686.432.785.826l3.718 14.873c.13.521.598.886 1.135.886h25.728c.537 0 1.005-.365 1.135-.886l3.718-14.873c.099-.394.397-.705.785-.826 3.572-1.115 7.004-2.545 10.266-4.256.36-.189.79-.18 1.139.03l13.15 7.89c.46.276 1.05.204 1.43-.176l18.193-18.193c.38-.38.452-.969.176-1.429l-7.89-13.15c-.209-.349-.219-.779-.03-1.139 1.712-3.262 3.141-6.694 4.256-10.266.121-.388.432-.686.826-.785l14.873-3.718c.521-.13.886-.598.886-1.135v-25.728c.002-.537-.364-1.005-.885-1.136zm-74.891 34.667c-11.414 0-20.667-9.253-20.667-20.667s9.253-20.667 20.667-20.667 20.667 9.253 20.667 20.667-9.253 20.667-20.667 20.667z" fill="#8ac9fe"/><path d="m254.943 200.714-68.755 40.052c-.733.427-.733 1.486 0 1.913l68.755 40.052c.344.201.77.201 1.115 0l68.755-40.052c.733-.427.733-1.486 0-1.913l-68.755-40.052c-.345-.201-.771-.201-1.115 0z" fill="#fdb441"/><path d="m324.812 240.766-68.755-40.052c-.344-.201-.77-.201-1.115 0l-2.271 1.323 17.428 10.153c7.336 4.274 7.336 14.872 0 19.146l-48.945 28.512c-1.045.609-2.164 1.032-3.313 1.272l37.101 21.612c.344.201.77.201 1.115 0l68.755-40.052c.733-.428.733-1.487 0-1.914z" fill="#fea713"/><g fill="#f9f7f8"><path d="m323.282 393.278h-135.564c-.611 0-1.107-.496-1.107-1.107v-66.675c0-.611.496-1.107 1.107-1.107h135.563c.612 0 1.107.496 1.107 1.107v66.675c.001.611-.495 1.107-1.106 1.107z"/><path d="m144.171 393.278h-135.564c-.611 0-1.107-.496-1.107-1.107v-66.675c0-.611.496-1.107 1.107-1.107h135.563c.611 0 1.107.496 1.107 1.107v66.675c.001.611-.495 1.107-1.106 1.107z"/><path d="m502.393 393.278h-135.564c-.611 0-1.107-.496-1.107-1.107v-66.675c0-.611.496-1.107 1.107-1.107h135.563c.611 0 1.107.496 1.107 1.107v66.675c.001.611-.495 1.107-1.106 1.107z"/></g><path d="m323.282 324.389h-38.814v21.322c0 15.247-12.36 27.607-27.607 27.607h-70.25v18.853c0 .611.496 1.107 1.107 1.107h135.563c.612 0 1.107-.496 1.107-1.107v-66.675c.001-.611-.495-1.107-1.106-1.107z" fill="#dff6fd"/><path d="m144.171 324.389h-38.814v21.322c0 15.247-12.36 27.607-27.607 27.607h-70.25v18.853c0 .611.496 1.107 1.107 1.107h135.563c.611 0 1.107-.496 1.107-1.107v-66.675c.001-.611-.495-1.107-1.106-1.107z" fill="#dff6fd"/><path d="m502.393 324.389h-38.814v21.322c0 15.247-12.36 27.607-27.607 27.607h-70.25v18.853c0 .611.496 1.107 1.107 1.107h135.563c.611 0 1.107-.496 1.107-1.107v-66.675c.001-.611-.495-1.107-1.106-1.107z" fill="#dff6fd"/><path d="m289.945 503.5h-68.889c-19.023 0-34.444-15.421-34.444-34.444 0-19.023 15.421-34.444 34.444-34.444h68.889c19.023 0 34.444 15.421 34.444 34.444 0 19.023-15.421 34.444-34.444 34.444z" fill="#6fd7a3"/><path d="m289.945 434.611h-8.661c2.044 4.403 3.185 9.31 3.185 14.484 0 19.023-15.421 34.444-34.444 34.444h-60.228c5.47 11.787 17.41 19.961 31.26 19.961h68.889c19.023 0 34.444-15.421 34.444-34.444-.001-19.023-15.422-34.445-34.445-34.445z" fill="#3ec3a4"/><path d="m283.667 83.278c0-15.531-12.636-28.167-28.167-28.167s-28.167 12.635-28.167 28.167 12.635 28.167 28.167 28.167 28.167-12.636 28.167-28.167zm-41.334 0c0-7.26 5.906-13.167 13.167-13.167s13.167 5.906 13.167 13.167-5.907 13.166-13.167 13.166-13.167-5.906-13.167-13.166z"/><path d="m502.393 316.889h-60.281v-75.167c0-4.142-3.357-7.5-7.5-7.5h-106.132l-65.48-38.144v-29.523h5.364c3.987 0 7.446-2.702 8.411-6.567l2.882-11.527c1.641-.609 3.261-1.281 4.852-2.012l10.187 6.112c3.421 2.057 7.782 1.519 10.594-1.302l18.201-18.199c2.812-2.819 3.345-7.172 1.297-10.584l-6.114-10.19c.731-1.591 1.402-3.21 2.012-4.851l11.529-2.882c3.864-.968 6.563-4.427 6.563-8.411v-25.728c0-3.984-2.699-7.443-6.563-8.411-.001 0-.002 0-.003 0l-11.527-2.882c-.608-1.641-1.28-3.261-2.011-4.851l6.113-10.189c2.049-3.414 1.516-7.767-1.304-10.593l-18.186-18.186c-2.82-2.826-7.18-3.364-10.598-1.311l-10.19 6.114c-1.591-.731-3.211-1.403-4.852-2.011l-2.881-11.521c-.964-3.87-4.423-6.573-8.412-6.573h-25.728c-3.985 0-7.444 2.7-8.412 6.568l-2.882 11.526c-1.641.608-3.26 1.28-4.851 2.011l-10.189-6.113c-3.417-2.05-7.773-1.516-10.593 1.303l-18.192 18.192c-2.819 2.819-3.354 7.175-1.304 10.591l6.114 10.19c-.731 1.591-1.403 3.21-2.011 4.851l-11.528 2.882c-3.866.968-6.566 4.426-6.566 8.412v25.728c0 3.985 2.7 7.443 6.568 8.411l11.526 2.882c.608 1.641 1.28 3.26 2.011 4.851l-6.113 10.189c-2.051 3.418-1.516 7.774 1.303 10.593l18.192 18.192c2.819 2.819 7.174 3.355 10.592 1.304l10.19-6.114c1.591.731 3.21 1.402 4.851 2.011l2.882 11.53c.968 3.865 4.427 6.564 8.411 6.564h5.365v29.523l-7.739 4.508c-3.579 2.085-4.79 6.676-2.705 10.255 2.085 3.58 6.677 4.791 10.256 2.706l7.688-4.479 56.055 32.653-56.055 32.656-56.054-32.653 17.417-10.146c3.58-2.085 4.791-6.676 2.706-10.255-2.084-3.58-6.678-4.792-10.255-2.706l-26.792 15.607h-106.133c-4.142 0-7.5 3.358-7.5 7.5v75.167h-60.282c-4.746 0-8.607 3.861-8.607 8.607v66.675c0 4.746 3.861 8.607 8.607 8.607h60.282v68.278c0 4.142 3.358 7.5 7.5 7.5h41.738c4.142 0 7.5-3.358 7.5-7.5s-3.358-7.5-7.5-7.5h-34.238v-60.778h60.282c4.746 0 8.607-3.861 8.607-8.607v-66.675c0-4.746-3.861-8.607-8.607-8.607h-60.282v-67.667h98.631l65.48 38.143v29.523h-60.282c-4.746 0-8.607 3.861-8.607 8.607v66.675c0 4.746 3.861 8.607 8.607 8.607h60.282v26.333h-26.944c-20.569 0-37.727 14.882-41.272 34.444h-26.725c-4.142 0-7.5 3.358-7.5 7.5s3.358 7.5 7.5 7.5h26.725c3.545 19.563 20.703 34.445 41.272 34.445h68.889c23.128 0 41.944-18.816 41.944-41.944s-18.816-41.944-41.944-41.944h-26.945v-26.333h60.282c4.745 0 8.606-3.861 8.606-8.607v-25.837h26.334v25.837c0 4.746 3.861 8.607 8.606 8.607h135.563c4.746 0 8.607-3.861 8.607-8.607v-66.675c.002-4.747-3.859-8.608-8.605-8.608zm-257.335-175.414c-.728-2.908-2.96-5.271-5.825-6.164-3.1-.968-6.133-2.226-9.018-3.739-2.658-1.394-5.908-1.302-8.481.241l-8.912 5.347-11.204-11.203 5.345-8.908c1.545-2.572 1.639-5.823.242-8.486-1.513-2.883-2.771-5.917-3.738-9.015-.895-2.867-3.257-5.1-6.167-5.827l-10.079-2.52v-15.845l10.079-2.52c2.91-.727 5.272-2.96 6.167-5.825.968-3.1 2.226-6.134 3.739-9.018 1.395-2.659 1.302-5.909-.241-8.48l-5.347-8.913 11.203-11.203 8.912 5.347c2.572 1.543 5.821 1.635 8.483.24 2.882-1.512 5.916-2.77 9.014-3.738 2.867-.895 5.1-3.257 5.827-6.167l2.521-10.079h15.844l2.52 10.079c.728 2.911 2.962 5.274 5.826 6.167 3.1.968 6.134 2.226 9.018 3.739 2.663 1.396 5.914 1.302 8.48-.241l8.912-5.347 11.204 11.203-5.343 8.906c-1.546 2.57-1.642 5.819-.244 8.49 1.513 2.882 2.771 5.916 3.737 9.014.896 2.871 3.263 5.104 6.167 5.827l10.078 2.52v15.843l-10.078 2.52c-2.909.727-5.272 2.96-6.166 5.825-.968 3.101-2.226 6.134-3.743 9.025-1.394 2.663-1.297 5.914.244 8.473l5.348 8.913-11.204 11.203-8.908-5.345c-2.572-1.546-5.824-1.639-8.486-.242-2.881 1.512-5.914 2.77-9.011 3.737-2.868.894-5.102 3.256-5.831 6.167l-2.52 10.079h-15.844zm-107.28 244.303h-122.778v-53.889h122.778zm179.111 83.278c0 14.857-12.087 26.944-26.944 26.944h-68.889c-14.857 0-26.944-12.087-26.944-26.944s12.087-26.944 26.944-26.944h68.889c14.857-.001 26.944 12.087 26.944 26.944zm0-83.278h-122.778v-53.889h122.777v53.889zm179.111 0h-122.777v-53.889h12.169c4.143 0 7.5-3.358 7.5-7.5s-3.357-7.5-7.5-7.5h-18.562c-4.745 0-8.606 3.861-8.606 8.607v25.837h-26.334v-25.837c0-4.746-3.861-8.607-8.606-8.607h-60.284v-29.523l65.481-38.144h98.63v67.667h-6.789c-4.143 0-7.5 3.358-7.5 7.5s3.357 7.5 7.5 7.5h75.678z"/></g></svg>