<svg id="Layer_1" enable-background="new 0 0 512 512" height="512" viewBox="0 0 512 512" width="512" xmlns="http://www.w3.org/2000/svg"><g id="XMLID_1087_"><g id="XMLID_312_"><path id="XMLID_384_" d="m400.161 181.563c11.449-26.767 6.271-58.948-15.574-80.792-4.403-4.404-9.23-8.125-14.345-11.175-17.145-46.464-61.823-79.596-114.242-79.596s-97.097 33.132-114.242 79.597c-5.115 3.051-9.942 6.771-14.345 11.175-21.845 21.844-27.023 54.025-15.574 80.792-28.49 31.708-27.49 80.532 3.01 111.032 31.54 31.54 82.676 31.54 114.215 0h53.87c31.54 31.54 82.676 31.54 114.215 0 30.501-30.501 31.502-79.325 3.012-111.033z" fill="#d1a184"/></g><g id="XMLID_2278_"><path id="XMLID_5_" d="m332 159.087c-18.567-3.482-35.559-11.43-49.808-22.702-20.185 15.488-45.438 24.699-72.847 24.699-10.125 0-19.955-1.259-29.345-3.625v40.541c0 41.974 34.026 76 76 76 41.974 0 76-34.026 76-76z" fill="#ffdcd5"/></g><g id="XMLID_1319_"><path id="XMLID_383_" d="m175.602 325.041c-63.845 0-115.602 51.757-115.602 115.602v61.357h196 196v-61.357c0-63.845-51.757-115.602-115.602-115.602z" fill="#d5ea79"/></g><g id="XMLID_1829_"><path id="XMLID_361_" d="m256 502h-226v-72h154c39.765 0 72 32.235 72 72 0-39.765 32.235-72 72-72h154v72z" fill="#ffda8f"/></g><g id="XMLID_1797_"><g id="XMLID_1798_"><path d="m256 338.355 46.436 46.436 33.962-59.75-46.357-21.041z" fill="#fff"/></g></g><g id="XMLID_1795_"><g id="XMLID_1796_"><path d="m256 338.355-46.436 46.436-33.962-59.75 46.357-21.041z" fill="#fff"/></g></g><g id="XMLID_1794_"><path d="m287.042 304v-33.228h-62.084v33.228l31.042 30.458z" fill="#ffd0c7"/></g><g id="XMLID_407_"><path id="XMLID_727_" d="m270.156 230.933c3.905-3.905 3.891-10.237-.014-14.143-3.905-3.904-10.25-3.904-14.156 0-3.905-3.904-10.237-3.904-14.143 0-3.905 3.905-3.905 10.237 0 14.143 3.903 3.902 9.03 5.854 14.156 5.854s10.254-1.952 14.157-5.854z"/><path id="XMLID_730_" d="m482 420h-21.694c-4.561-27.559-18.203-52.828-39.006-71.919-14.139-12.976-30.853-22.393-48.882-27.78 8.42-3.213 16.47-7.719 23.84-13.545 4.333-3.425 5.068-9.714 1.643-14.047-3.425-4.332-9.714-5.067-14.046-1.643-25.474 20.138-61.32 20.177-86.813.611v-18.12c26.76-14.594 44.958-42.989 44.958-75.557v-38.913c0-4.813-3.427-8.941-8.157-9.829-16.516-3.097-32.23-10.26-45.447-20.715-3.593-2.843-8.658-2.881-12.292-.091-19.298 14.807-42.383 22.633-66.76 22.633-9.101 0-18.151-1.118-26.901-3.323-2.989-.754-6.159-.086-8.59 1.81-2.432 1.895-3.854 4.805-3.854 7.888v40.54c0 32.568 18.198 60.963 44.958 75.558v18.13c-27.81 21.311-67.983 18.893-93.038-6.163-26.597-26.597-27.758-69.326-2.644-97.277 2.602-2.896 3.287-7.037 1.756-10.616-10.253-23.971-4.973-51.364 13.452-69.789 3.72-3.721 7.89-6.97 12.396-9.656 1.964-1.172 3.468-2.981 4.26-5.127 16.125-43.7 58.265-73.06 104.861-73.06 46.595 0 88.735 29.36 104.86 73.059.792 2.146 2.296 3.956 4.26 5.127 4.503 2.686 8.674 5.935 12.396 9.657 18.424 18.424 23.704 45.817 13.451 69.788-1.531 3.579-.846 7.721 1.756 10.616 7.994 8.896 13.626 19.747 16.289 31.381 1.232 5.384 6.594 8.748 11.979 7.517 5.383-1.232 8.749-6.596 7.517-11.979-2.956-12.913-8.759-25.072-16.905-35.507 10.323-30.058 2.808-63.205-19.944-85.957-4.049-4.05-8.504-7.674-13.279-10.806-9.425-23.626-25.358-43.86-46.246-58.678-22.335-15.844-48.662-24.218-76.134-24.218s-53.799 8.374-76.134 24.218c-20.888 14.817-36.821 35.053-46.246 58.678-4.776 3.133-9.231 6.757-13.278 10.805-22.75 22.751-30.266 55.896-19.947 85.953-28.025 35.806-25.25 87.379 7.384 120.014 9.145 9.145 19.982 16.126 31.801 20.635-18.028 5.387-34.742 14.805-48.881 27.779-20.802 19.09-34.444 44.359-39.005 71.918h-21.694c-5.523 0-10 4.478-10 10v72c0 5.522 4.477 10 10 10h452c5.523 0 10-4.478 10-10v-72c0-5.522-4.477-10-10-10zm-189.754-104.018 30.047 13.638-22.066 38.82-30.117-30.117zm-102.246-117.982v-28.353c6.386.956 12.855 1.438 19.345 1.438 26.267 0 51.268-7.688 72.771-22.311 12.093 8.406 25.654 14.635 39.885 18.321v30.905c0 36.393-29.607 66-66 66s-66.001-29.607-66.001-66zm66 86c7.258 0 14.305-.913 21.042-2.614v21.526l-21.042 21.236-21.042-21.236v-21.526c6.737 1.701 13.784 2.614 21.042 2.614zm-36.246 31.982 22.136 22.341-30.118 30.117-22.065-38.82zm-49.883 19.214 30.999 54.536c1.542 2.713 4.263 4.551 7.355 4.969.447.061.895.09 1.339.09 2.634 0 5.183-1.041 7.07-2.929l39.366-39.364 39.365 39.365c1.888 1.888 4.437 2.929 7.071 2.929.445 0 .892-.029 1.339-.09 3.093-.418 5.813-2.256 7.355-4.969l30.999-54.536c48.67 2.557 88.626 37.512 97.866 84.804h-111.995c-31.022 0-58.072 17.318-72 42.792-13.928-25.475-40.978-42.793-72-42.793h-111.994c9.24-47.292 49.195-82.247 97.865-84.804zm-129.871 156.804v-52h144c30.784 0 56.399 22.551 61.194 52zm432 0h-205.194c4.795-29.449 30.411-52 61.194-52h144z"/><path id="XMLID_796_" d="m416.23 252.31c-2.63 0-5.21 1.07-7.07 2.931-1.86 1.869-2.93 4.439-2.93 7.079 0 2.631 1.07 5.2 2.93 7.07 1.86 1.86 4.44 2.92 7.07 2.92s5.21-1.06 7.07-2.92c1.86-1.87 2.93-4.439 2.93-7.07 0-2.64-1.07-5.21-2.93-7.079-1.86-1.861-4.44-2.931-7.07-2.931z"/></g></g></svg>