<svg id="Слой_1" data-name="Слой 1" xmlns="http://www.w3.org/2000/svg" viewBox="0 0 512 512"><defs><style>.cls-1{fill:#7eadde;}.cls-2{fill:#609cd6;}.cls-3{fill:#408ace;}.cls-4{fill:#8ecbfd;}.cls-5{fill:none;}</style></defs><path class="cls-1" d="M408.67,149.63l-27.28,305.6-3.51,39.33A10.93,10.93,0,0,1,367,504.5H144.7a10.94,10.94,0,0,1-10.88-9.94l-3.51-39.33L103,149.63a10.92,10.92,0,0,1,10.87-11.89H397.8A10.93,10.93,0,0,1,408.67,149.63Z"/><path class="cls-2" d="M408.67,149.63l-27.28,305.6-3.51,39.33A10.93,10.93,0,0,1,367,504.5H338.56a10.93,10.93,0,0,0,10.88-9.94L353,455.23l27.28-305.6a10.93,10.93,0,0,0-10.87-11.89H397.8A10.93,10.93,0,0,1,408.67,149.63Z"/><path class="cls-2" d="M381.39,455.23l-3.51,39.33A10.93,10.93,0,0,1,367,504.5H144.7a10.94,10.94,0,0,1-10.88-9.94l-3.51-39.33Z"/><path class="cls-3" d="M381.39,455.23l-3.51,39.33A10.93,10.93,0,0,1,367,504.5H338.56a10.93,10.93,0,0,0,10.88-9.94L353,455.23Z"/><path class="cls-4" d="M407.2,160.12H104.51a18,18,0,1,1,0-36H407.2a18,18,0,0,1,0,36Z"/><path d="M104.51,116.6A25.51,25.51,0,0,0,97,166.49l7.13,79.92a7.51,7.51,0,0,0,7.47,6.83c.22,0,.45,0,.67,0a7.51,7.51,0,0,0,6.81-8.14l-6.92-77.45H309.59a7.5,7.5,0,0,0,0-15H104.51a10.51,10.51,0,1,1,0-21H407.19a10.51,10.51,0,1,1,0,21H344.11a7.5,7.5,0,0,0,0,15h55.42l-25,280.11H137.18l-15-168.14a7.5,7.5,0,0,0-14.94,1.34l19.13,214.3A18.31,18.31,0,0,0,144.7,512h57.89a7.5,7.5,0,1,0,0-15H144.7a3.44,3.44,0,0,1-3.4-3.11l-2.78-31.16H373.2l-2.79,31.15A3.45,3.45,0,0,1,367,497H237.11a7.5,7.5,0,0,0,0,15H367a18.34,18.34,0,0,0,18.35-16.77L414.69,166.5a25.51,25.51,0,0,0-7.5-49.9H374.65"/><path d="M315.82,415.28a7.5,7.5,0,0,0,7.46-6.78l19-198.9a7.5,7.5,0,0,0-14.93-1.43l-19.05,198.9a7.51,7.51,0,0,0,6.75,8.18Z"/><path d="M195.89,415.28l.72,0a7.5,7.5,0,0,0,6.75-8.18l-19-198.9a7.5,7.5,0,1,0-14.93,1.43l19,198.9A7.5,7.5,0,0,0,195.89,415.28Z"/><path d="M263.35,416.33v-216a7.5,7.5,0,0,0-15,0v216a7.5,7.5,0,0,0,15,0Z"/><rect class="cls-5" width="512" height="512"/></svg>